<svg xmlns="http://www.w3.org/2000/svg" viewBox="0 0 1280 360" role="img" aria-label="viral-thread-architect poster"><defs><filter id="glow" x="-20%" y="-20%" width="140%" height="140%"><feGaussianBlur stdDeviation="1.2" result="b"/><feMerge><feMergeNode in="b"/><feMergeNode in="SourceGraphic"/></feMerge></filter><linearGradient id="bg" x1="0" y1="0" x2="1" y2="1"><stop offset="0" stop-color="#0A0A0A"/><stop offset="1" stop-color="#0A0A0A"/></linearGradient></defs><rect width="1280" height="360" fill="url(#bg)"/><g stroke="#00F0FF" stroke-width="1" fill="none" opacity="0.22"><path d="M0 60 L220 60 L260 100 L540 100"/><path d="M0 160 L140 160 L180 200 L360 200 L400 160 L640 160"/><path d="M0 260 L180 260 L220 300 L520 300"/><path d="M640 40 L760 40 L800 80 L1040 80"/><path d="M680 180 L880 180 L920 140 L1180 140"/><path d="M640 300 L800 300 L840 260 L1080 260"/></g><g fill="#00F0FF" opacity="0.6"><circle cx="260" cy="100" r="2.5"/><circle cx="400" cy="160" r="2.5"/><circle cx="220" cy="300" r="2.5"/><circle cx="800" cy="80" r="2.5"/><circle cx="920" cy="140" r="2.5"/><circle cx="840" cy="260" r="2.5"/></g><rect x="0" y="0" width="4" height="360" fill="#00F0FF"/><text x="48" y="76" font-family="'Space Grotesk','Inter',ui-sans-serif,sans-serif" font-size="44" font-weight="800" fill="#FFFFFF" filter="url(#glow)">viral-thread-architect</text><text x="48" y="104" font-family="'JetBrains Mono',ui-monospace,monospace" font-size="13" letter-spacing="2" fill="#00F0FF">GROK-NATIVE CERTIFIED</text><text x="48" y="146" font-family="'Inter',ui-sans-serif,sans-serif" font-size="18" fill="#E5E5E5">Turn any idea into a fire X thread in seconds — images, voice, perfect formatting.</text><g font-family="'JetBrains Mono',ui-monospace,monospace" font-size="11" font-weight="700"><g><rect x="48" y="196" width="150" height="28" rx="14" fill="none" stroke="#00F0FF" stroke-width="1"/><text x="123" y="215" text-anchor="middle" fill="#00F0FF">SAFETY: STRICT</text></g><g><rect x="208" y="196" width="150" height="28" rx="14" fill="none" stroke="#00F0FF" stroke-width="1"/><text x="283" y="215" text-anchor="middle" fill="#00F0FF">PATTERN: SWARM</text></g><g><rect x="368" y="196" width="150" height="28" rx="14" fill="none" stroke="#00F0FF" stroke-width="1"/><text x="443" y="215" text-anchor="middle" fill="#00F0FF">AGENTS: 3</text></g><g><rect x="528" y="196" width="70" height="28" rx="14" fill="#00F0FF"/><text x="563" y="215" text-anchor="middle" fill="#0A0A0A">VOICE</text></g></g><rect x="704" y="40" width="528" height="226" rx="16" fill="#FFFFFF" opacity="0.04"/><rect x="704" y="40" width="528" height="226" rx="16" fill="none" stroke="#00F0FF" stroke-width="1" opacity="0.25"/><text x="724" y="68" font-family="'JetBrains Mono',ui-monospace,monospace" font-size="11" letter-spacing="2" fill="rgba(255,255,255,0.5)">AGENTS &amp; TOOLS</text><text x="724" y="100" font-family="'JetBrains Mono',ui-monospace,monospace" font-size="16" font-weight="700" fill="#FFFFFF">coordinator</text><text x="724" y="120" font-family="'JetBrains Mono',ui-monospace,monospace" font-size="12" fill="#E5E5E5">x_search, web_search</text><text x="724" y="150" font-family="'JetBrains Mono',ui-monospace,monospace" font-size="16" font-weight="700" fill="#FFFFFF">lucas <tspan fill="rgba(255,255,255,0.5)" font-weight="400">creative</tspan></text><text x="724" y="170" font-family="'JetBrains Mono',ui-monospace,monospace" font-size="12" fill="#E5E5E5">image_generation — writes the hook</text><text x="724" y="200" font-family="'JetBrains Mono',ui-monospace,monospace" font-size="16" font-weight="700" fill="#FFFFFF">benjamin <tspan fill="rgba(255,255,255,0.5)" font-weight="400">logic</tspan></text><text x="724" y="220" font-family="'JetBrains Mono',ui-monospace,monospace" font-size="12" fill="#E5E5E5">structures the body — 8 to 12 posts</text><text x="724" y="246" font-family="'JetBrains Mono',ui-monospace,monospace" font-size="11" fill="#00FF9D">runtime: grok-4.20-multi-agent</text><rect x="48" y="290" width="1184" height="40" rx="8" fill="#FFFFFF" opacity="0.04"/><rect x="48" y="290" width="1184" height="40" rx="8" fill="none" stroke="#00F0FF" stroke-width="1" opacity="0.4"/><text x="64" y="316" font-family="'JetBrains Mono',ui-monospace,monospace" font-size="14" fill="#FFFFFF">$ grok-install install github.com/agentmindcloud/awesome-grok-agents/agents/viral-thread-architect</text></svg>
