<svg xmlns="http://www.w3.org/2000/svg" viewBox="0 0 1280 360" role="img" aria-label="voice-companion poster"><defs><filter id="glow" x="-20%" y="-20%" width="140%" height="140%"><feGaussianBlur stdDeviation="1.2" result="b"/><feMerge><feMergeNode in="b"/><feMergeNode in="SourceGraphic"/></feMerge></filter></defs><rect width="1280" height="360" fill="#0A0A0A"/><g stroke="#00F0FF" stroke-width="1" fill="none" opacity="0.22"><path d="M0 60 L180 60 L220 100 L460 100"/><path d="M820 300 L1040 300 L1080 260 L1280 260"/><path d="M0 300 L160 300 L200 340 L380 340"/><path d="M900 60 L1080 60 L1120 100 L1280 100"/></g><path d="M0 180 Q 60 170, 90 180 T 150 180 T 210 160 T 270 200 T 330 170 T 390 190 T 450 165 T 510 205 T 570 155 T 630 215 T 690 145 T 750 225 T 810 155 T 870 205 T 930 170 T 990 195 T 1050 175 T 1110 185 T 1170 175 T 1230 182 T 1280 180" stroke="#00F0FF" stroke-width="1.4" fill="none" opacity="0.75" filter="url(#glow)"/><rect x="0" y="0" width="4" height="360" fill="#00F0FF"/><text x="48" y="76" font-family="'Space Grotesk','Inter',ui-sans-serif,sans-serif" font-size="44" font-weight="800" fill="#FFFFFF" filter="url(#glow)">voice-companion</text><text x="48" y="104" font-family="'JetBrains Mono',ui-monospace,monospace" font-size="13" letter-spacing="2" fill="#00F0FF">GROK-NATIVE CERTIFIED · VOICE-READY</text><text x="48" y="146" font-family="'Inter',ui-sans-serif,sans-serif" font-size="18" fill="#E5E5E5">Always on, context-aware — ready for voice conversations on X.</text><g font-family="'JetBrains Mono',ui-monospace,monospace" font-size="11" font-weight="700"><g><rect x="48" y="196" width="170" height="28" rx="14" fill="none" stroke="#00F0FF" stroke-width="1"/><text x="133" y="215" text-anchor="middle" fill="#00F0FF">SAFETY: STANDARD</text></g><g><rect x="228" y="196" width="170" height="28" rx="14" fill="none" stroke="#00F0FF" stroke-width="1"/><text x="313" y="215" text-anchor="middle" fill="#00F0FF">PATTERN: SWARM</text></g><g><rect x="408" y="196" width="110" height="28" rx="14" fill="none" stroke="#00F0FF" stroke-width="1"/><text x="463" y="215" text-anchor="middle" fill="#00F0FF">AGENTS: 2</text></g><g><rect x="528" y="196" width="120" height="28" rx="14" fill="#00F0FF"/><text x="588" y="215" text-anchor="middle" fill="#0A0A0A">REAL-TIME</text></g></g><rect x="704" y="40" width="528" height="226" rx="16" fill="#FFFFFF" opacity="0.04"/><rect x="704" y="40" width="528" height="226" rx="16" fill="none" stroke="#00F0FF" stroke-width="1" opacity="0.25"/><text x="724" y="68" font-family="'JetBrains Mono',ui-monospace,monospace" font-size="11" letter-spacing="2" fill="rgba(255,255,255,0.5)">AGENTS &amp; VOICE STACK</text><text x="724" y="100" font-family="'JetBrains Mono',ui-monospace,monospace" font-size="16" font-weight="700" fill="#FFFFFF">coordinator</text><text x="724" y="120" font-family="'JetBrains Mono',ui-monospace,monospace" font-size="12" fill="#E5E5E5">x_search, draft_reply — 1-2 sentence answers</text><text x="724" y="150" font-family="'JetBrains Mono',ui-monospace,monospace" font-size="16" font-weight="700" fill="#FFFFFF">memory-keeper</text><text x="724" y="170" font-family="'JetBrains Mono',ui-monospace,monospace" font-size="12" fill="#E5E5E5">session_memory_read — encrypted, session-only</text><text x="724" y="200" font-family="'JetBrains Mono',ui-monospace,monospace" font-size="16" font-weight="700" fill="#FFFFFF">grok-voice-2 <tspan fill="rgba(255,255,255,0.5)" font-weight="400">stt + tts</tspan></text><text x="724" y="220" font-family="'JetBrains Mono',ui-monospace,monospace" font-size="12" fill="#E5E5E5">emotion-aware · diarization · barge-in</text><text x="724" y="246" font-family="'JetBrains Mono',ui-monospace,monospace" font-size="11" fill="#00FF9D">first-audio budget: 400 ms</text><rect x="48" y="290" width="1184" height="40" rx="8" fill="#FFFFFF" opacity="0.04"/><rect x="48" y="290" width="1184" height="40" rx="8" fill="none" stroke="#00F0FF" stroke-width="1" opacity="0.4"/><text x="64" y="316" font-family="'JetBrains Mono',ui-monospace,monospace" font-size="14" fill="#FFFFFF">$ grok-install install github.com/agentmindcloud/awesome-grok-agents/agents/voice-companion</text></svg>
